<svg width="205" height="48" viewBox="0 0 205 48" fill="none" xmlns="http://www.w3.org/2000/svg">
<circle cx="19" cy="24" r="14" fill="#8777E7"/>
<path d="M19.0051 38C17.0692 38 15.249 37.6326 13.5447 36.8979C11.8406 36.1632 10.3581 35.166 9.09733 33.9066C7.83656 32.6471 6.83854 31.1659 6.10328 29.4631C5.36776 27.7606 5 25.9412 5 24.0051C5 22.0692 5.36737 20.249 6.10211 18.5447C6.83685 16.8406 7.83396 15.3581 9.09344 14.0973C10.3529 12.8366 11.8341 11.8385 13.5369 11.1033C15.2394 10.3678 17.0588 10 18.9949 10C20.9308 10 22.751 10.3674 24.4553 11.1021C26.1594 11.8369 27.6419 12.834 28.9027 14.0934C30.1634 15.3529 31.1615 16.8341 31.8967 18.5369C32.6322 20.2394 33 22.0588 33 23.9949C33 25.9308 32.6326 27.751 31.8979 29.4553C31.1631 31.1594 30.166 32.6419 28.9066 33.9027C27.6471 35.1634 26.1659 36.1615 24.4631 36.8967C22.7606 37.6322 20.9412 38 19.0051 38ZM19 36.4444C22.4741 36.4444 25.4167 35.2389 27.8278 32.8278C30.2389 30.4167 31.4444 27.4741 31.4444 24C31.4444 23.8185 31.4429 23.6355 31.4398 23.4509C31.4369 23.2666 31.4255 23.0896 31.4056 22.9201C31.3358 23.612 31.0606 24.1843 30.5799 24.637C30.0993 25.0899 29.51 25.3164 28.8121 25.3164H24.8633C24.1394 25.3164 23.5197 25.0589 23.004 24.5441C22.4886 24.0294 22.2309 23.4107 22.2309 22.6879V21.3738H16.9657V18.7453C16.9657 18.0225 17.2236 17.4013 17.7392 16.8818C18.2546 16.3622 18.8743 16.1024 19.5981 16.1024H20.9145V14.9058C20.9145 14.1501 21.1613 13.5554 21.6549 13.1216C22.1486 12.6879 22.7384 12.4381 23.4244 12.3722C22.7265 12.1031 22.0112 11.8997 21.2785 11.7621C20.5458 11.6244 19.7863 11.5556 19 11.5556C15.5259 11.5556 12.5833 12.7611 10.1722 15.1722C7.76111 17.5833 6.55556 20.5259 6.55556 24V24.4488C6.55556 24.5883 6.56554 24.7379 6.5855 24.8976H13.5556C15.0274 24.8976 16.2729 25.407 17.292 26.4259C18.3109 27.445 18.8203 28.686 18.8203 30.1487V31.4787H14.8719V35.7266C15.51 35.9557 16.1765 36.1327 16.8716 36.2574C17.5667 36.3821 18.2761 36.4444 19 36.4444Z" fill="#272727" fill-opacity="0.25"/>
<circle cx="30" cy="28" r="7" fill="#FF8B4E"/>
<path d="M42.705 10.31H51.519C57.863 10.31 61.035 12.78 61.035 17.72C61.035 19.332 60.567 20.697 59.631 21.815C58.695 22.933 57.447 23.635 55.887 23.921C57.837 24.181 59.371 24.896 60.489 26.066C61.633 27.236 62.205 28.731 62.205 30.551C62.205 33.021 61.438 34.88 59.904 36.128C58.37 37.376 56.095 38 53.079 38H42.705V10.31ZM53.079 36.128C57.785 36.128 60.138 34.243 60.138 30.473C60.138 28.783 59.501 27.457 58.227 26.495C56.979 25.533 55.263 25.052 53.079 25.052H44.655V36.128H53.079ZM51.519 23.18C53.885 23.18 55.718 22.712 57.018 21.776C58.318 20.84 58.968 19.514 58.968 17.798C58.968 15.9 58.344 14.496 57.096 13.586C55.874 12.65 54.015 12.182 51.519 12.182H44.655V23.18H51.519ZM64.5584 17.33H66.1574L66.3134 21.659C66.7814 20.203 67.4444 19.124 68.3024 18.422C69.1604 17.694 70.2914 17.33 71.6954 17.33H73.2944V19.202H71.5004C69.9924 19.202 68.7704 19.787 67.8344 20.957C66.8984 22.101 66.4304 23.557 66.4304 25.325V38H64.5584V17.33ZM79.5801 38.468C77.5261 38.468 75.8881 37.974 74.6661 36.986C73.4441 35.972 72.8331 34.607 72.8331 32.891C72.8331 31.305 73.3791 30.031 74.4711 29.069C75.5891 28.081 77.1621 27.392 79.1901 27.002L87.1851 25.52C87.1851 23.154 86.7041 21.425 85.7421 20.333C84.8061 19.241 83.3501 18.695 81.3741 18.695C79.6321 18.695 78.2411 19.124 77.2011 19.982C76.1611 20.814 75.4981 22.023 75.2121 23.609L73.1841 23.453C73.5481 21.373 74.4321 19.761 75.8361 18.617C77.2661 17.447 79.1121 16.862 81.3741 16.862C83.8701 16.862 85.7681 17.577 87.0681 19.007C88.3941 20.437 89.0571 22.53 89.0571 25.286V34.022C89.0571 34.88 89.1741 35.465 89.4081 35.777C89.6681 36.089 90.0971 36.245 90.6951 36.245H91.1241V38C90.9681 38.026 90.7081 38.039 90.3441 38.039C89.3041 38.039 88.5241 37.766 88.0041 37.22C87.4841 36.648 87.1851 35.634 87.1071 34.178C86.5091 35.4 85.5211 36.427 84.1431 37.259C82.7911 38.065 81.2701 38.468 79.5801 38.468ZM79.7361 36.713C81.1661 36.713 82.4531 36.414 83.5971 35.816C84.7411 35.218 85.6251 34.399 86.2491 33.359C86.8731 32.319 87.1851 31.149 87.1851 29.849V27.197L79.6191 28.64C76.4211 29.238 74.8221 30.603 74.8221 32.735C74.8221 34.009 75.2381 34.997 76.0701 35.699C76.9281 36.375 78.1501 36.713 79.7361 36.713ZM92.4053 17.33H94.1603L94.2383 21.581C94.7063 20.073 95.5513 18.916 96.7733 18.11C97.9953 17.278 99.4253 16.862 101.063 16.862C103.299 16.862 105.002 17.59 106.172 19.046C107.342 20.502 107.927 22.387 107.927 24.701V38H106.055V25.637C106.055 20.957 104.261 18.617 100.673 18.617C98.7233 18.617 97.1633 19.254 95.9933 20.528C94.8493 21.802 94.2773 23.505 94.2773 25.637V38H92.4053V17.33ZM117.945 38.468C115.267 38.468 113.148 37.506 111.588 35.582C110.054 33.632 109.287 30.993 109.287 27.665C109.287 24.337 110.054 21.711 111.588 19.787C113.148 17.837 115.267 16.862 117.945 16.862C119.557 16.862 120.974 17.304 122.196 18.188C123.444 19.072 124.328 20.229 124.848 21.659V10.31H126.72V38H125.16L125.043 33.359C124.471 34.945 123.535 36.193 122.235 37.103C120.935 38.013 119.505 38.468 117.945 38.468ZM118.179 36.635C120.233 36.635 121.858 35.816 123.054 34.178C124.25 32.54 124.848 30.369 124.848 27.665C124.848 25.923 124.575 24.376 124.029 23.024C123.483 21.672 122.703 20.619 121.689 19.865C120.701 19.085 119.531 18.695 118.179 18.695C116.047 18.695 114.357 19.501 113.109 21.113C111.887 22.725 111.276 24.909 111.276 27.665C111.276 30.395 111.887 32.579 113.109 34.217C114.357 35.829 116.047 36.635 118.179 36.635ZM129.961 10.31H135.031V21.854H146.692V10.31H151.762V38H146.692V26.261H135.031V38H129.961V10.31ZM160.568 38.468C158.358 38.468 156.59 37.974 155.264 36.986C153.964 35.972 153.314 34.568 153.314 32.774C153.314 31.006 153.86 29.615 154.952 28.601C156.07 27.561 157.786 26.82 160.1 26.378L167.003 25.013C167.003 23.557 166.665 22.452 165.989 21.698C165.313 20.944 164.325 20.567 163.025 20.567C160.659 20.567 159.242 21.646 158.774 23.804L153.665 23.57C154.081 21.386 155.095 19.696 156.707 18.5C158.319 17.304 160.425 16.706 163.025 16.706C165.963 16.706 168.186 17.46 169.694 18.968C171.228 20.45 171.995 22.582 171.995 25.364V32.93C171.995 33.476 172.086 33.853 172.268 34.061C172.45 34.269 172.749 34.373 173.165 34.373H173.828V38C173.412 38.104 172.814 38.156 172.034 38.156C170.812 38.156 169.824 37.896 169.07 37.376C168.342 36.856 167.874 35.985 167.666 34.763C167.146 35.881 166.249 36.778 164.975 37.454C163.727 38.13 162.258 38.468 160.568 38.468ZM161.582 34.841C163.22 34.841 164.533 34.36 165.521 33.398C166.509 32.436 167.003 31.162 167.003 29.576V28.406L161.621 29.498C160.529 29.706 159.736 30.044 159.242 30.512C158.748 30.98 158.501 31.578 158.501 32.306C158.501 33.112 158.761 33.736 159.281 34.178C159.827 34.62 160.594 34.841 161.582 34.841ZM179.283 38C177.671 38 176.423 37.61 175.539 36.83C174.681 36.024 174.252 34.776 174.252 33.086L174.291 10.31H179.283V32.579C179.283 33.619 179.803 34.139 180.843 34.139H182.364V38H179.283ZM192.217 38.468C190.163 38.468 188.356 38.026 186.796 37.142C185.262 36.232 184.066 34.958 183.208 33.32C182.376 31.682 181.96 29.771 181.96 27.587C181.96 25.403 182.376 23.492 183.208 21.854C184.066 20.216 185.262 18.955 186.796 18.071C188.356 17.161 190.163 16.706 192.217 16.706C194.245 16.706 196.026 17.161 197.56 18.071C199.12 18.955 200.316 20.216 201.148 21.854C202.006 23.492 202.435 25.403 202.435 27.587C202.435 29.771 202.006 31.682 201.148 33.32C200.316 34.958 199.12 36.232 197.56 37.142C196.026 38.026 194.245 38.468 192.217 38.468ZM192.217 34.412C193.829 34.412 195.077 33.814 195.961 32.618C196.845 31.422 197.287 29.745 197.287 27.587C197.287 25.429 196.832 23.752 195.922 22.556C195.038 21.36 193.803 20.762 192.217 20.762C190.605 20.762 189.357 21.36 188.473 22.556C187.589 23.752 187.147 25.429 187.147 27.587C187.147 29.745 187.589 31.422 188.473 32.618C189.357 33.814 190.605 34.412 192.217 34.412Z" fill="#505050"/>
<circle cx="26" cy="34" r="4" fill="#470089"/>
</svg>
