<svg width="38" height="38" viewBox="0 0 38 38" fill="none" xmlns="http://www.w3.org/2000/svg">
<circle cx="19" cy="19" r="14" fill="#8777E7"/>
<path d="M19.0051 33C17.0692 33 15.249 32.6326 13.5447 31.8979C11.8406 31.1632 10.3581 30.166 9.09733 28.9066C7.83656 27.6471 6.83854 26.1659 6.10328 24.4631C5.36776 22.7606 5 20.9412 5 19.0051C5 17.0692 5.36737 15.249 6.10211 13.5447C6.83685 11.8406 7.83396 10.3581 9.09344 9.09733C10.3529 7.83656 11.8341 6.83854 13.5369 6.10328C15.2394 5.36776 17.0588 5 18.9949 5C20.9308 5 22.751 5.36737 24.4553 6.10211C26.1594 6.83685 27.6419 7.83396 28.9027 9.09344C30.1634 10.3529 31.1615 11.8341 31.8967 13.5369C32.6322 15.2394 33 17.0588 33 18.9949C33 20.9308 32.6326 22.751 31.8979 24.4553C31.1631 26.1594 30.166 27.6419 28.9066 28.9027C27.6471 30.1634 26.1659 31.1615 24.4631 31.8967C22.7606 32.6322 20.9412 33 19.0051 33ZM19 31.4444C22.4741 31.4444 25.4167 30.2389 27.8278 27.8278C30.2389 25.4167 31.4444 22.4741 31.4444 19C31.4444 18.8185 31.4429 18.6355 31.4398 18.4509C31.4369 18.2666 31.4255 18.0896 31.4056 17.9201C31.3358 18.612 31.0606 19.1843 30.5799 19.637C30.0993 20.0899 29.51 20.3164 28.8121 20.3164H24.8633C24.1394 20.3164 23.5197 20.0589 23.004 19.5441C22.4886 19.0294 22.2309 18.4107 22.2309 17.6879V16.3738H16.9657V13.7453C16.9657 13.0225 17.2236 12.4013 17.7392 11.8818C18.2546 11.3622 18.8743 11.1024 19.5981 11.1024H20.9145V9.90583C20.9145 9.15009 21.1613 8.55535 21.6549 8.12161C22.1486 7.68787 22.7384 7.43807 23.4244 7.37222C22.7265 7.10311 22.0112 6.89972 21.2785 6.76206C20.5458 6.62439 19.7863 6.55556 19 6.55556C15.5259 6.55556 12.5833 7.76111 10.1722 10.1722C7.76111 12.5833 6.55556 15.5259 6.55556 19V19.4488C6.55556 19.5883 6.56554 19.7379 6.5855 19.8976H13.5556C15.0274 19.8976 16.2729 20.407 17.292 21.4259C18.3109 22.445 18.8203 23.686 18.8203 25.1487V26.4787H14.8719V30.7266C15.51 30.9557 16.1765 31.1327 16.8716 31.2574C17.5667 31.3821 18.2761 31.4444 19 31.4444Z" fill="#272727" fill-opacity="0.25"/>
<circle cx="30" cy="23" r="7" fill="#FF8B4E"/>
<circle cx="26" cy="29" r="4" fill="#470089"/>
</svg>
